PathFileType	4	(X/Y/Z)	3_coords_data.trc
DataRate	CameraRate	NumFrames	NumMarkers	Units	OrigDataRate	OrigDataStartFrame	OrigNumFrames
30.0	30.0	8	21	m	30.0	1	71
Frame#	Time	THUMB_TIP	THUMB_IP	THUMB_MCP	THUMB_CMC	INDEX_TIP	INDEX_DIP	INDEX_PIP	INDEX_MCP	MIDDLE_TIP	MIDDLE_DIP	MIDDLE_PIP	MIDDLE_MCP	RING_TIP	RING_DIP	RING_PIP	RING_MCP	PINKY_TIP	PINKY_DIP	PINKY_PIP	PINKY_MCP	WRIST
X1	Y1	Z1	X2	Y2	Z2	X3	Y3	Z3	X4	Y4	Z4	X5	Y5	Z5	X6	Y6	Z6	X7	Y7	Z7	X8	Y8	Z8	X9	Y9	Z9	X10	Y10	Z10	X11	Y11	Z11	X12	Y12	Z12	X13	Y13	Z13	X14	Y14	Z14	X15	Y15	Z15	X16	Y16	Z16	X17	Y17	Z17	X18	Y18	Z18	X19	Y19	Z19	X20	Y20	Z20	X21	Y21	Z21
0	-2.749317978547796e-18	0.5382059249663158	-0.016539699917713535	-0.10111191687714335	0.5243197541914363	-0.009433992508942501	-0.11798447398719095	0.4932774867609902	-0.007695200183285733	-0.11650994557956171	0.47555749970076255	-0.016587705375379125	-0.07654977278221312	0.5557409993167255	0.033563030745617395	-0.17055778168379063	0.5447968797296605	0.033414302650803696	-0.1561285015070863	0.5289913773321729	0.03274025214113008	-0.13659029322501948	0.5036905279912898	0.030894188179143245	-0.10238363942085163	0.5216295120403903	-0.004164244810872297	-0.10845356724608599	0.5365144014795864	-0.004237456518737859	-0.11877028699747708	0.544050980257307	0.023902902560662964	-0.11791604978826478	0.5160189252161429	0.02954092290421484	-0.08358582203232293	0.5302450537953037	-0.009948969226472704	-0.09499625437102646	0.546479388459734	-0.007050995486001299	-0.10227966883148526	0.5569947722645265	0.015256265185585427	-0.09881660605876655	0.5272489016479878	0.019428498210663392	-0.07175193375613947	0.6017115762951698	0.0009056437548222718	-0.08750684813160961	0.5859521478233759	0.001866193890947554	-0.08089490759358287	0.5663298443834918	0.002209238793931978	-0.07343437497803537	0.5317820441070054	-0.0007943278694738654	-0.06351915766551616	0.4622830810018609	-0.023011742144276925	-0.051989820119430985
1	0.03333333333333339	0.5388073462871612	-0.016602035808481963	-0.10094731711163094	0.5250145282354335	-0.009436177099757748	-0.11787092899439805	0.4940025254112577	-0.007422076331661032	-0.116133379303234	0.4753166124016244	-0.016575808195562036	-0.07667535289592081	0.5558620857757504	0.03314154796782398	-0.1703562528178999	0.544635686050106	0.03298822372925625	-0.15614553711185886	0.5288368026674533	0.03245070570154396	-0.13659774462188135	0.5035601940529002	0.03102244602494031	-0.10235319432197382	0.5211980282346513	-0.005684828169215228	-0.10839692983772942	0.5361922902502541	-0.004811379904009927	-0.11851667265735985	0.5439731651896511	0.023274306237385245	-0.11826813866670743	0.5159743792563805	0.029344848806963197	-0.08398455046223519	0.5291977936895317	-0.010518150671499193	-0.09561760941985603	0.5454555907480632	-0.007045907108028104	-0.10259095577863836	0.5567201225722551	0.01488437251761987	-0.09907625275808926	0.5271358339166298	0.019526836627065447	-0.0719112343385638	0.6016030228840421	0.0009725566878827641	-0.0876067762588825	0.5858826875782972	0.0018229008732693064	-0.08088755214881366	0.566123862224682	0.0023097483584123557	-0.07380491004494152	0.5314856371304547	-0.0001656338176937444	-0.06406071708688346	0.4622830810018609	-0.023011742144276925	-0.051989820119430985
2	0.06666666666666676	0.5392476164585058	-0.016679183968787092	-0.10077958395588829	0.5255326742443986	-0.009460036521357185	-0.11774378951335454	0.4945442399538654	-0.007246701727941285	-0.11583641191215463	0.4751271060790406	-0.016576820200452258	-0.07677474526343059	0.5559699767908174	0.032788081445705886	-0.1701979291635411	0.544535172013648	0.03263550303162033	-0.15615435556080096	0.5287347935984352	0.032203324069443706	-0.13660515874147539	0.5034763313962966	0.03110323305784357	-0.10233511379039109	0.5208979563345135	-0.006867956436109157	-0.10835067226823572	0.5359455966540281	-0.005251306075958695	-0.11829828315867277	0.543921977928059	0.02277966618865923	-0.11852518770140064	0.5159500237337453	0.029187520157782143	-0.08428110635788064	0.5284548229033299	-0.010995601586982762	-0.09609644656282432	0.5447158155488753	-0.007047550791299373	-0.10280412970204808	0.5565160097846343	0.014593244120973292	-0.09925287773079733	0.527056090734118	0.019598510651377077	-0.07201721525497998	0.6015125548819957	0.0010151009340028105	-0.0876537258494732	0.5858233802644031	0.0017809966813132627	-0.08085201992206517	0.5659649263796913	0.002380664694722312	-0.07406274701677762	0.531263788602539	0.00029000551384594786	-0.0644531876012521	0.46228308100186083	-0.023011742144276925	-0.051989820119430985
3	0.10000000000000014	0.539559283772155	-0.01676559649992293	-0.10062574614277206	0.5259045841879012	-0.009501854300362655	-0.11761948700586944	0.4949319640605479	-0.007153275501509793	-0.11561924200281407	0.47498483527737206	-0.016588320645365418	-0.0768509305043647	0.5560715902331719	0.03250096541598069	-0.17007770087933952	0.5444884271998881	0.03235363378420475	-0.15615618416833976	0.5286791027284953	0.0319984316629629	-0.13661267055867155	0.5034319278012694	0.031144269307367023	-0.10232729964242876	0.5207016927242909	-0.007743074424671592	-0.10831006394068621	0.5357692995467497	-0.005576871768111169	-0.11812203574529834	0.5438957077280092	0.022405900618516883	-0.11870125041166033	0.51594355398158	0.029065033733650547	-0.0844889577657281	0.5279595360951814	-0.011377216247637323	-0.0964418241794282	0.5442125415582035	-0.007057065298394116	-0.10293613778401584	0.5563766125117902	0.014377080128530562	-0.0993594400537686	0.5270049338406922	0.019647365816015006	-0.07207850504753985	0.6014471412947304	0.0010401077250070667	-0.08766384303766972	0.5857812032301887	0.0017456537108574421	-0.08080231336712318	0.5658535722083006	0.002429291159882885	-0.0742270429777192	0.531109695552973	0.0005998138024173594	-0.06471917788833637	0.46228308100186094	-0.023011742144276925	-0.051989820119430985
4	0.13333333333333353	0.5397691362707515	-0.01685603151753623	-0.10049448595290283	0.5261563853189997	-0.009557570332708987	-0.11750699534626247	0.4951920276966874	-0.007127346326125994	-0.11547658447272346	0.47488517772723315	-0.016607937671116124	-0.0769066449852499	0.556171135122466	0.03227560526756457	-0.16999014858554168	0.5444884991534045	0.032137297597619074	-0.15615190853115524	0.528663649393767	0.03183408606050475	-0.13662008767777178	0.5034206683219513	0.031152388737310743	-0.1023277665348758	0.5205863477782317	-0.008346908937371555	-0.10827189839219692	0.5356567212013339	-0.005806269242110251	-0.11798935664150845	0.543891808551165	0.022138698771995702	-0.1188088986058104	0.5159524153637148	0.02897337127799915	-0.08462080885144208	0.5276644240213253	-0.0116642667767215	-0.0966652647507695	0.5439057181545535	-0.007073499920307036	-0.103001290677801	0.5562950327636382	0.014228385750248096	-0.09940761158866107	0.5269779462837585	0.01967677228923237	-0.0721029534063457	0.6014087382411155	0.0010520037049717157	-0.08764861372351218	0.5857586052491828	0.0017189907680736916	-0.08074727576682067	0.5657867015137386	0.002460489220533657	-0.07431413810101967	0.5310151440196677	0.0007878647427850272	-0.06487885496838586	0.4622830810018609	-0.023011742144276925	-0.051989820119430985
5	0.1666666666666669	0.5398990046404317	-0.01694594494324908	-0.10038863733099876	0.5263107837667584	-0.00962307534694462	-0.1174102657596712	0.4953480935989194	-0.007155596733406933	-0.11539945327161177	0.4748231579743849	-0.016633348386121405	-0.07694442445588748	0.5562708663606808	0.03210531685670104	-0.1699296592087526	0.5445283286605898	0.03197916092546493	-0.15614209622456454	0.5286823951747519	0.03170673757657683	-0.13662692237236976	0.5034367063345596	0.031133847259724234	-0.1023346041995041	0.5205339041717882	-0.008719326029044017	-0.1082344900380563	0.5356000319120944	-0.005956248110105644	-0.11789767767602813	0.5439070936948431	0.02196286714825313	-0.11885959125222842	0.5159738718623854	0.028908443356881808	-0.08468881411460916	0.5275297065829485	-0.011863181369963227	-0.09678111579349993	0.5437605792211991	-0.007095129154126578	-0.10301204280863521	0.5562635410479544	0.014138513011758058	-0.09940810538827455	0.5269709379081413	0.01968977515859871	-0.07209789257565671	0.6013956696746012	0.001053770202237847	-0.08761628014222253	0.5857547932342804	0.0017011776534053835	-0.08069213053589647	0.5657587914254754	0.002477601019631792	-0.07433846250721837	0.5309710375830082	0.0008760361335810041	-0.0649506713127101	0.4622830810018609	-0.023011742144276925	-0.051989820119430985
6	0.20000000000000023	0.539966916286988	-0.01703158348941136	-0.10030720681457911	0.5263880061771615	-0.009694333917328213	-0.11733007287603348	0.495421756260781	-0.007225554929465305	-0.11537648734543737	0.47479355171950155	-0.01666227518770702	-0.07696665151956034	0.5563717056692046	0.0319820380901078	-0.16989047617936237	0.5446007396585275	0.03187055159650021	-0.15612704891951068	0.5287292760294386	0.03161177820558114	-0.13663244680501085	0.5034744842143664	0.031094558785851434	-0.10234594700626759	0.5205303236068786	-0.008901058605067402	-0.108197343816886	0.5355906439339735	-0.006042356841792662	-0.11784175027212926	0.5439379159821776	0.02186261733528927	-0.11886401028292365	0.5160050597693056	0.02886612045311554	-0.08470475957583662	0.5275215138145453	-0.011984273929594225	-0.0968061790441074	0.5437457936980388	-0.007119974333965717	-0.10297961663640867	0.5562738199889846	0.014098089538511105	-0.0993709739889766	0.5269798679002459	0.019689211415150343	-0.07207034100761056	0.6014038042729088	0.0010476112227111312	-0.08757299364157417	0.5857668024209022	0.001691247414536079	-0.08063974724952164	0.5657627901885962	0.002483118803321971	-0.07431325902038702	0.5309677459115443	0.0008847937721253585	-0.0649519716167953	0.46228308100186094	-0.023011742144276925	-0.051989820119430985
7	0.23333333333333361	0.5399883775890624	-0.017109885998927488	-0.1002469793384001	0.5264067032846831	-0.009767418751770451	-0.11726538989327237	0.4954332078094886	-0.007325303581950493	-0.11539492162424364	0.47479097267624115	-0.016692480200084736	-0.07697560186310784	0.5564737432869347	0.031896914848044355	-0.16986672239537787	0.5446984575780274	0.03180201664605398	-0.1561068662622323	0.5287981694749473	0.031543988174948634	-0.13663575708614392	0.503528593651836	0.03104027584537361	-0.10235995066807316	0.5205643048058506	-0.008932761061402061	-0.10816079068490247	0.5356195089099645	-0.006079289051524328	-0.11781472909740096	0.5439803264178236	0.02182179922338212	-0.11883235067547535	0.5160430302720007	0.028842255304740827	-0.08468021162869943	0.5276099182823353	-0.012040234187714494	-0.09675899809955657	0.5438319960261421	-0.007145949959004971	-0.1029144977187989	0.5563171858946016	0.014097350234877237	-0.09930586780966044	0.5270007826250594	0.019677801046308896	-0.07202715995758688	0.6014275352157548	0.001035414804390955	-0.08752372644777917	0.5857903717929321	0.0016876898597101286	-0.08059165191412443	0.5657907824358338	0.002479169224726019	-0.07425114681104364	0.5309953421770768	0.0008338182824425555	-0.064899483404141	0.46228308100186083	-0.023011742144276925	-0.051989820119430985
